#!OML:ASF I:\Actors\actors\Patient Classification 1\Patient 1\Session 1\Subject1.ASF
:FULLY-SPECIFIED
:DEGREES
1139
root 0.559588 17.566 7.87951 12.216 10.1051 -5.7851
lowerback 2.74535 4.07362 3.47771
upperback -9.86575 6.02135 1.07664
thorax -11.9158 2.67733 -1.5397
lowerneck -10.7462 -12.7459 -7.47893
upperneck 14.5945 -17.321 6.80117
head 7.48897 -8.18687 1.54912
rclavicle 3.91979e-015 4.12478e-015
rhumerus 18.5941 -9.0455 -69.1512
rradius 57.5435
rwrist 35.1224
rhand -24.9086 -55.9797
rfingers 7.12502
rthumb 1.59984 -85.9535
lclavicle 3.91979e-015 4.12478e-015
lhumerus -45.5176 -16.9389 91.7125
lradius 75.1737
lwrist 13.3503
lhand -28.8186 -25.4188
lfingers 7.12502
lthumb -2.17653 4.54985
rfemur -1.0364 37.2299 18.375
rtibia -2.7461
rfoot -32.7435 -45.3684
rtoes 23.1906
lfemur -2.51929 -51.8859 -13.0971
ltibia -6.016
lfoot -10.8463 52.9512
ltoes 9.40175
1140
root 0.561758 17.5678 7.8783 12.251 10.115 -5.76276
lowerback 2.73383 4.04388 3.59647
upperback -9.87926 5.99019 1.06479
thorax -11.9129 2.65022 -1.61299
lowerneck -10.926 -12.7353 -7.4094
upperneck 14.83 -17.3223 6.77081
head 7.58814 -8.17499 1.51176
rclavicle 3.6901e-014 9.88954e-015
rhumerus 18.5904 -10.2397 -70.4509
rradius 58.0287
rwrist 35.2283
rhand -25.5229 -56.643
rfingers 7.12502
rthumb 1.00655 -86.6204
lclavicle 3.6901e-014 9.88954e-015
lhumerus -45.5602 -16.9937 91.7124
lradius 75.1658
lwrist 13.4385
lhand -28.8365 -25.4528
lfingers 7.12502
lthumb -2.19384 4.51562
rfemur -1.17586 36.8961 18.2544
rtibia -2.68625
rfoot -32.4483 -45.0688
rtoes 23.2565
lfemur -2.47027 -52.0098 -13.1674
ltibia -6.04476
lfoot -11.4409 53.082
ltoes 9.97296
1141
root 0.563904 17.5699 7.87558 12.3241 9.98791 -5.76128
lowerback 2.75279 4.04876 3.73304
upperback -9.94027 6.01206 1.05164
thorax -11.9803 2.64447 -1.70856
lowerneck -10.9643 -12.7268 -7.49011
upperneck 14.9657 -17.3084 6.78089
head 7.64665 -8.16732 1.52113
rclavicle -3.10601e-015 -4.69629e-015
rhumerus 18.1149 -11.7956 -72.4878
rradius 59.0916
rwrist 36.4347
rhand -25.9313 -56.2953
rfingers 7.12502
rthumb 0.612058 -86.2742
lclavicle -3.10601e-015 -4.69629e-015
lhumerus -45.6705 -17.0988 91.7307
lradius 75.1431
lwrist 13.5593
lhand -28.8715 -25.443
lfingers 7.12502
lthumb -2.22762 4.52511
rfemur -1.42971 36.609 18.0814
rtibia -2.58655
rfoot -32.0455 -44.7076
rtoes 23.3115
lfemur -2.46119 -51.9905 -13.1972
ltibia -6.07572
lfoot -11.8887 53.1864
ltoes 10.4648
1142
root 0.566194 17.5733 7.87256 12.4204 9.67605 -5.67853
lowerback 2.75525 4.11611 3.79823
upperback -9.98017 6.10377 0.980014
thorax -12.009 2.67694 -1.83378
lowerneck -11.0111 -12.7065 -7.42422
upperneck 15.0569 -17.2867 6.72644
head 7.67202 -8.15465 1.49278
rclavicle 2.06985e-014 5.34234e-015
rhumerus 19.7083 -10.1489 -71.3105
rradius 57.5605
rwrist 34.6582
rhand -26.3429 -57.3665
rfingers 7.12502
rthumb 0.214548 -87.3462
lclavicle 2.06985e-014 5.34234e-015
lhumerus -45.6863 -17.2598 91.7274
lradius 75.0389
lwrist 13.6111
lhand -28.8385 -25.3093
lfingers 7.12502
lthumb -2.19577 4.65911
rfemur -1.75876 36.2654 17.7573
rtibia -2.47841
rfoot -31.3079 -44.314
rtoes 22.8352
lfemur -2.39489 -51.8142 -13.3962
ltibia -6.09464
lfoot -12.6249 53.2475
ltoes 11.4791
1143
root 0.569381 17.5752 7.86916 12.501 9.21613 -5.50735
lowerback 2.78903 4.20972 3.71476
upperback -10.0217 6.21746 0.889581
thorax -12.0697 2.73177 -1.90378
lowerneck -11.008 -12.6381 -7.23774
upperneck 15.0944 -17.2157 6.65951
head 7.65565 -8.11629 1.45566
rclavicle 6.48846e-015 -2.5842e-015
rhumerus 18.3768 -9.96968 -71.9146
rradius 58.3746
rwrist 36.085
rhand -26.0629 -55.1475
rfingers 7.12502
rthumb 0.48503 -85.1267
lclavicle 6.48846e-015 -2.5842e-015
lhumerus -45.7117 -17.3589 91.7106
lradius 74.8504
lwrist 13.508
lhand -28.721 -25.2038
lfingers 7.12502
lthumb -2.08221 4.76575
rfemur -2.05502 35.9544 17.3261
rtibia -2.40861
rfoot -30.4414 -43.9125
rtoes 21.953
lfemur -2.18736 -51.525 -13.8289
ltibia -6.12948
lfoot -13.6013 53.2739
ltoes 12.7763
1144
root 0.570698 17.5734 7.86483 12.502 8.70921 -5.4862
lowerback 2.89468 4.27708 3.70695
upperback -10.0561 6.31259 0.865892
thorax -12.1684 2.77258 -1.94755
lowerneck -10.9705 -12.5242 -7.02842
upperneck 15.0988 -17.0882 6.60872
head 7.61824 -8.05042 1.43089
rclavicle 2.06891e-014 2.11209e-015
rhumerus 18.2193 -7.93444 -70.6894
rradius 57.9112
rwrist 36.3516
rhand -25.2268 -52.9072
rfingers 7.12502
rthumb 1.29256 -82.8831
lclavicle 2.06891e-014 2.11209e-015
lhumerus -45.7919 -17.3502 91.6316
lradius 74.7126
lwrist 13.3653
lhand -28.6218 -25.0942
lfingers 7.12502
lthumb -1.98644 4.87635
rfemur -2.26985 35.7415 17.122
rtibia -2.34974
rfoot -29.4775 -43.5487
rtoes 20.9071
lfemur -1.78353 -51.1576 -14.1895
ltibia -6.30225
lfoot -14.5877 53.2575
ltoes 14.098
1145
root 0.570637 17.5722 7.86273 12.5407 8.18487 -5.38765
lowerback 2.94613 4.31848 3.5733
upperback -10.0789 6.35713 0.844544
thorax -12.2355 2.80256 -1.90904
lowerneck -11.0208 -12.4225 -6.94234
upperneck 15.1882 -16.9619 6.57701
head 7.63702 -7.98507 1.42023
rclavicle -8.94531e-016 2.38045e-014
rhumerus 18.1024 -5.95724 -69.5736
rradius 57.5407
rwrist 37.1916
rhand -24.2067 -50.7414
rfingers 7.12502
rthumb 2.27773 -80.709
lclavicle -8.94531e-016 2.38045e-014
lhumerus -45.8821 -17.2855 91.5485
lradius 74.6836
lwrist 13.3384
lhand -28.6558 -25.0604
lfingers 7.12502
lthumb -2.01931 4.90978
rfemur -2.50667 35.5082 16.8181
rtibia -2.29688
rfoot -28.4504 -43.1582
rtoes 19.9095
lfemur -1.40703 -50.7796 -14.5981
ltibia -6.50304
lfoot -15.4991 53.2029
ltoes 15.2943
1146
root 0.571033 17.5726 7.86388 12.5833 7.6719 -5.22985
lowerback 2.92953 4.39546 3.42522
upperback -10.0798 6.43542 0.746622
thorax -12.2253 2.84862 -1.94157
lowerneck -11.0805 -12.4073 -6.93859
upperneck 15.2798 -16.9607 6.64892
head 7.6839 -7.97403 1.43555
rclavicle 2.17716e-014 1.26539e-014
rhumerus 17.9685 -4.43806 -68.6565
rradius 57.1746
rwrist 37.71
rhand -23.8307 -49.9593
rfingers 7.12502
rthumb 2.6409 -79.9227
lclavicle 2.17716e-014 1.26539e-014
lhumerus -45.9118 -17.3679 91.486
lradius 74.6935
lwrist 13.3848
lhand -28.7212 -25.0707
lfingers 7.12502
lthumb -2.08245 4.89893
rfemur -2.69098 35.3852 16.4764
rtibia -2.25634
rfoot -27.7338 -42.7813
rtoes 19.28
lfemur -1.10764 -50.4242 -15.0415
ltibia -6.61943
lfoot -16.1307 53.1805
ltoes 15.9896
1147
root 0.56975 17.5724 7.86584 12.5102 7.30046 -5.33675
lowerback 2.98678 4.48766 3.58522
upperback -10.0697 6.56819 0.665426
thorax -12.2148 2.89191 -2.13627
lowerneck -11.1164 -12.4833 -6.96387
upperneck 15.3532 -17.1022 6.82848
head 7.74357 -8.02374 1.47116
rclavicle 1.46417e-014 2.47238e-014
rhumerus 17.345 -4.29269 -68.7146
rradius 57.8502
rwrist 38.3089
rhand -24.0417 -49.8463
rfingers 7.12502
rthumb 2.43709 -79.8121
lclavicle 1.46417e-014 2.47238e-014
lhumerus -45.8724 -17.6056 91.4508
lradius 74.6463
lwrist 13.3772
lhand -28.7423 -25.0236
lfingers 7.12502
lthumb -2.10278 4.94574
rfemur -2.68757 35.5542 16.5912
rtibia -2.22414
rfoot -27.4653 -42.6699
rtoes 18.938
lfemur -0.785822 -50.1484 -15.1692
ltibia -6.71208
lfoot -16.5036 53.2114
ltoes 16.3641
1148
root 0.565846 17.5728 7.86851 12.4881 7.14659 -5.3914
lowerback 3.02965 4.51481 3.6306
upperback -10.0977 6.60702 0.611207
thorax -12.2601 2.90081 -2.2294
lowerneck -11.1671 -12.4806 -7.04622
upperneck 15.5 -17.1223 6.96653
head 7.82285 -8.02015 1.5149
rclavicle 2.3761e-014 3.62782e-015
rhumerus 16.5957 -4.52016 -68.8143
rradius 58.8744
rwrist 38.2194
rhand -24.6505 -50.3824
rfingers 7.12502
rthumb 1.84915 -80.3541
lclavicle 2.3761e-014 3.62782e-015
lhumerus -45.8503 -17.7622 91.4643
lradius 74.5837
lwrist 13.2955
lhand -28.674 -25.083
lfingers 7.12502
lthumb -2.03687 4.88698
rfemur -2.66203 35.7019 16.6815
rtibia -2.24726
rfoot -27.263 -42.7953
rtoes 18.4829
lfemur -0.788907 -50.0799 -15.1026
ltibia -6.64759
lfoot -16.4534 53.2898
ltoes 16.1452
1149
root 0.560176 17.5744 7.87327 12.5858 7.12873 -5.20565
lowerback 2.95467 4.47976 3.33259
upperback -10.1474 6.52542 0.563474
thorax -12.3015 2.88633 -2.10473
lowerneck -11.1688 -12.5078 -7.40413
upperneck 15.6236 -17.1747 7.2996
head 7.93202 -8.03156 1.65617
rclavicle -3.5334e-014 -1.3418e-014
rhumerus 17.1215 -3.96265 -67.9423
rradius 59.599
rwrist 36.5061
rhand -24.928 -52.2586
rfingers 7.12502
rthumb 1.58108 -82.2325
lclavicle -3.5334e-014 -1.3418e-014
lhumerus -45.8805 -17.7486 91.5195
lradius 74.6051
lwrist 13.1466
lhand -28.6508 -25.1826
lfingers 7.12502
lthumb -2.01447 4.78764
rfemur -2.69311 35.7451 16.4492
rtibia -2.33911
rfoot -27.1932 -42.961
rtoes 18.2361
lfemur -1.15208 -50.1799 -15.0588
ltibia -6.41785
lfoot -16.0587 53.401
ltoes 15.4504
1150
root 0.553723 17.5752 7.88036 12.6156 7.21816 -5.08572
lowerback 2.93309 4.41614 3.05466
upperback -10.1844 6.41626 0.581322
thorax -12.3684 2.85983 -1.92145
lowerneck -11.0937 -12.5573 -7.70373
upperneck 15.6428 -17.2511 7.56765
head 7.98413 -8.06228 1.77401
rclavicle -8.66577e-015 -1.2921e-014
rhumerus 15.9191 -4.88306 -68.4015
rradius 62.2512
rwrist 36.1956
rhand -24.9718 -52.8042
rfingers 7.12502
rthumb 1.53879 -82.7783
lclavicle -8.66577e-015 -1.2921e-014
lhumerus -45.9702 -17.6441 91.6424
lradius 74.6914
lwrist 12.9389
lhand -28.7384 -25.3938
lfingers 7.12502
lthumb -2.09906 4.57562
rfemur -2.56681 35.9051 16.3935
rtibia -2.45865
rfoot -27.5706 -43.1637
rtoes 18.6488
lfemur -1.39338 -50.3736 -15.0058
ltibia -6.23673
lfoot -15.5261 53.5192
ltoes 14.7423
1151
root 0.546061 17.5748 7.88881 12.5467 7.46112 -5.13826
lowerback 2.92966 4.29978 2.91446
upperback -10.1471 6.25572 0.699232
thorax -12.3587 2.80386 -1.69637
lowerneck -11.0687 -12.6224 -7.85994
upperneck 15.5421 -17.3357 7.71645
head 7.98164 -8.10094 1.83395
rclavicle -4.65591e-015 7.95139e-016
rhumerus 14.6945 -5.90915 -68.9
rradius 65.3594
rwrist 36.035
rhand -25.0668 -52.9767
rfingers 7.12502
rthumb 1.44703 -82.9515
lclavicle -4.65591e-015 7.95139e-016
lhumerus -46.0024 -17.441 91.7856
lradius 74.841
lwrist 12.7586
lhand -28.9223 -25.7736
lfingers 7.12502
lthumb -2.27671 4.19403
rfemur -2.29196 36.1909 16.6653
rtibia -2.53228
rfoot -28.2235 -43.4817
rtoes 19.3128
lfemur -1.5045 -50.6807 -14.8066
ltibia -6.11658
lfoot -14.7508 53.6334
ltoes 13.8385
1152
root 0.537743 17.5742 7.8983 12.4899 7.85412 -5.24674
lowerback 2.85827 4.15284 2.92919
upperback -10.0701 6.06012 0.793775
thorax -12.2416 2.71784 -1.56809
lowerneck -11.0506 -12.6409 -7.74256
upperneck 15.2689 -17.3336 7.60431
head 7.86615 -8.1113 1.79163
rclavicle 2.9445e-014 5.2504e-014
rhumerus 13.2779 -6.94859 -69.4291
rradius 69.0003
rwrist 36.1003
rhand -25.529 -53.2779
rfingers 7.12502
rthumb 1.0007 -83.2553
lclavicle 2.9445e-014 5.2504e-014
lhumerus -45.9739 -17.2709 91.8928
lradius 75.0831
lwrist 12.6637
lhand -29.1643 -26.0931
lfingers 7.12502
lthumb -2.51043 3.87191
rfemur -2.031 36.4836 17.0324
rtibia -2.55332
rfoot -28.9421 -43.901
rtoes 19.8165
lfemur -1.78767 -51.1082 -14.3853
ltibia -5.94465
lfoot -13.8918 53.7344
ltoes 12.7616
1153
root 0.531525 17.5738 7.90846 12.4998 8.39149 -5.32263
lowerback 2.79931 3.95346 2.89953
upperback -10.0633 5.79899 0.934451
thorax -12.2262 2.60426 -1.36315
lowerneck -11.0138 -12.662 -7.68642
upperneck 15.0637 -17.3172 7.41211
head 7.76687 -8.12387 1.73464
rclavicle -4.32403e-014 -2.86871e-014
rhumerus 11.5865 -7.68811 -69.8163
rradius 72.9537
rwrist 36.4303
rhand -26.4187 -54.0706
rfingers 7.12502
rthumb 0.14132 -84.0503
lclavicle -4.32403e-014 -2.86871e-014
lhumerus -46.0697 -16.9962 92.0993
lradius 75.3657
lwrist 12.6023
lhand -29.3742 -26.3229
lfingers 7.12502
lthumb -2.71313 3.63962
rfemur -1.83637 36.5465 17.328
rtibia -2.584
rfoot -29.6677 -44.2342
rtoes 20.3511
lfemur -2.3244 -51.6633 -13.7943
ltibia -5.71763
lfoot -12.9895 53.8475
ltoes 11.5335
